<svg xmlns="http://www.w3.org/2000/svg" viewBox="0 0 203.18 248.16"><defs><style>.cls-1{fill:#13284c;fill-rule:evenodd;}</style></defs><g id="Layer_2" data-name="Layer 2"><g id="Layer_1-2" data-name="Layer 1"><path class="cls-1" d="M147.53,201.32,83.65,164.43,53.8,194.32,36,212.14V99.87L46,94.1l10-5.77c14.68,8.32,29.23,16.38,43.7,24.75,15.75,8.91,31.24,18,47,27.14l2.75-1.6V77.82L131.24,96l.13,15L55.64,67.27l-3.22,1.87L17.47,89.33V230.67L0,248.16V79.23l3.23-1.86L52.42,48.94l3.22-1.86,63.27,36.5,30.47-30.49,17.81-17.83V148.52l-10,5.77-10,5.77c-30.42-17.22-60.45-34.42-90.67-51.88l-2.75,1.6v59.8l17.1-17.12-.05-15.64,76.69,44.31,3.22-1.87,35-20.19V16.73L202.42,0h.76V169.17L200,171l-49.19,28.43Z"/></g></g></svg>